<svg width="18" height="18" viewBox="0 0 18 18" fill="none" xmlns="http://www.w3.org/2000/svg">
<path d="M16.6486 6.29458L11.8086 5.87458L9.91861 1.42458C9.57861 0.614578 8.41861 0.614578 8.07861 1.42458L6.18861 5.88458L1.35861 6.29458C0.478608 6.36458 0.118608 7.46458 0.788608 8.04458L4.45861 11.2246L3.35861 15.9446C3.15861 16.8046 4.08861 17.4846 4.84861 17.0246L8.99861 14.5246L13.1486 17.0346C13.9086 17.4946 14.8386 16.8146 14.6386 15.9546L13.5386 11.2246L17.2086 8.04458C17.8786 7.46458 17.5286 6.36458 16.6486 6.29458ZM8.99861 12.6546L5.23861 14.9246L6.23861 10.6446L2.91861 7.76458L7.29861 7.38458L8.99861 3.35458L10.7086 7.39458L15.0886 7.77458L11.7686 10.6546L12.7686 14.9346L8.99861 12.6546Z" fill="#B3B4B5"/>
</svg>
