<svg width="72" height="56" viewBox="0 0 72 56" fill="none" xmlns="http://www.w3.org/2000/svg">
<path d="M7.39736 4.43307H6.75671C5.47369 4.43307 4.43359 5.48885 4.43359 6.79121V8.07288C4.43359 9.37524 5.47369 10.431 6.75671 10.431H7.39736C8.68038 10.431 9.72048 9.37524 9.72048 8.07288V6.79121C9.72048 5.48885 8.68038 4.43307 7.39736 4.43307Z" fill="white"/>
<path fill-rule="evenodd" clip-rule="evenodd" d="M4.93262 10.4307L5.05701 14.5346L6.92297 15.7973L9.09993 14.5346V10.0204L7.01627 10.6138L5.04768 10.0204L4.93262 10.4307Z" fill="white"/>
<path fill-rule="evenodd" clip-rule="evenodd" d="M4.87988 14.5529L7.09415 16.286V6.08322H4.93897L4.87988 14.5529Z" fill="white"/>
<path fill-rule="evenodd" clip-rule="evenodd" d="M9.309 14.0792L7.09473 15.8155V5.6095H9.24991L9.309 14.0792Z" fill="#DBDBDB"/>
<path fill-rule="evenodd" clip-rule="evenodd" d="M5.07227 4.69478V7.08133L7.09372 8.27776L9.11518 7.08133V4.69478L7.09372 3.49835L5.07227 4.69478Z" fill="#E2E2E2"/>
<path fill-rule="evenodd" clip-rule="evenodd" d="M6.26962 0.224923C6.77654 -0.0749742 7.39853 -0.0749742 7.90545 0.224923L13.354 3.46381C13.861 3.7637 14.172 4.32246 14.172 4.92225V11.4032C14.172 12.0061 13.861 12.5617 13.354 12.8616L7.90545 16.1005C7.39853 16.4004 6.77654 16.4004 6.26962 16.1005L0.817912 12.8616C0.310993 12.5617 0 12.003 0 11.4032V4.92225C0 4.3193 0.310993 3.7637 0.817912 3.46381L6.26962 0.224923ZM6.88228 6.17866C7.00979 6.1029 7.16528 6.1029 7.29279 6.17866L8.65494 6.98996C8.78245 7.06573 8.8602 7.20463 8.8602 7.35615V8.9756C8.8602 9.12712 8.78245 9.26602 8.65494 9.34179L7.29279 10.1531C7.16528 10.2288 7.00979 10.2288 6.88228 10.1531L5.52013 9.34179C5.39262 9.26602 5.31487 9.12712 5.31487 8.9756V7.35615C5.31487 7.20463 5.39262 7.06573 5.52013 6.98996L6.88228 6.17866ZM5.31487 10.7245C5.31487 10.6361 5.34286 10.5508 5.38951 10.4814C5.42372 10.5287 5.46726 10.5729 5.52013 10.6045L6.88228 11.4158C7.00979 11.4916 7.16528 11.4916 7.29279 11.4158L8.65494 10.6045C8.70781 10.5729 8.75135 10.5319 8.78556 10.4814C8.83221 10.5508 8.8602 10.6361 8.8602 10.7245V12.3439C8.8602 12.3439 8.8602 12.366 8.8602 12.3755C8.8602 12.3849 8.8602 12.3976 8.8602 12.407V14.0265C8.8602 14.178 8.78245 14.3169 8.65494 14.3927L7.29279 15.204C7.16528 15.2797 7.00979 15.2797 6.88228 15.204L5.52013 14.3927C5.39262 14.3169 5.31487 14.178 5.31487 14.0265V12.407C5.31487 12.407 5.31487 12.3849 5.31487 12.3755C5.31487 12.366 5.31487 12.3534 5.31487 12.3439V10.7245Z" fill="#753BBD"/>
<path d="M17.0947 6.47092H18.6817V12.9923H17.0947V6.47092Z" fill="white"/>
<path d="M21.2017 12.9928V7.81805H19.9668V6.47143H21.2017V4.43805H22.7887V6.47143H24.0369V7.81805H22.7887V12.9928H21.2017Z" fill="white"/>
<path d="M24.6758 9.73124C24.6758 7.68442 25.9891 6.2717 27.8751 6.2717C29.7612 6.2717 31.0226 7.57911 31.0226 9.61137V10.0998L26.1844 10.1133C26.3014 11.2616 26.8995 11.843 27.9535 11.843C28.8253 11.843 29.397 11.5002 29.5791 10.8796H31.0491C30.7765 12.3057 29.6055 13.1639 27.9281 13.1639C26.0167 13.1639 24.6769 11.7512 24.6769 9.73124H24.6758ZM26.223 9.08482H29.4488C29.4488 8.18744 28.8374 7.59255 27.8884 7.59255C26.9393 7.59255 26.3797 8.1079 26.2241 9.08482H26.223Z" fill="white"/>
<path d="M32.2979 12.9921V6.47076H33.7546L33.8848 7.23593C34.2104 6.69482 34.8604 6.27246 35.7841 6.27246C36.7597 6.27246 37.4362 6.76092 37.7739 7.51377C38.0995 6.76092 38.8532 6.27246 39.8288 6.27246C41.3893 6.27246 42.2479 7.22249 42.2479 8.7282V12.9921H40.6741V9.15056C40.6741 8.21285 40.1797 7.72439 39.426 7.72439C38.6722 7.72439 38.073 8.2263 38.073 9.29508V12.9921H36.486V9.13711C36.486 8.2263 36.0048 7.73784 35.2511 7.73784C34.4973 7.73784 33.8859 8.23974 33.8859 9.2962V12.9933H32.299L32.2979 12.9921Z" fill="white"/>
<path d="M18.4395 3.29428H17.3476C17.2074 3.29428 17.0938 3.41867 17.0938 3.57212V4.7675C17.0938 4.92095 17.2074 5.04534 17.3476 5.04534H18.4395C18.5797 5.04534 18.6933 4.92095 18.6933 4.7675V3.57212C18.6933 3.41867 18.5797 3.29428 18.4395 3.29428Z" fill="white"/>
<path d="M53.6455 56V30.1948H57.6188L57.9001 32.8717C58.9549 30.8373 61.2405 29.6595 63.8776 29.6595C68.7651 29.6595 72 33.2643 72 38.7965C72 44.2931 69.0464 48.2906 63.8776 48.2906C61.2756 48.2906 59.0253 47.2555 57.9352 45.4709V56H53.6455ZM57.9704 39.0107C57.9704 42.1873 59.9043 44.3645 62.8579 44.3645C65.8818 44.3645 67.6751 42.1516 67.6751 39.0107C67.6751 35.8698 65.8818 33.6212 62.8579 33.6212C59.9043 33.6212 57.9704 35.8341 57.9704 39.0107Z" fill="white"/>
<path d="M46.3656 26.6616C44.8889 26.6616 43.7285 25.4837 43.7285 24.0204C43.7285 22.557 44.8889 21.4149 46.3656 21.4149C47.7721 21.4149 48.9325 22.557 48.9325 24.0204C48.9325 25.4837 47.7721 26.6616 46.3656 26.6616ZM44.2208 47.8268V30.1951H48.5105V47.8268H44.2208Z" fill="white"/>
<path d="M27.1013 47.8263H22.8115V21.2717H27.1364V32.4789C28.2264 30.7657 30.2658 29.6592 32.7623 29.6592C37.052 29.6592 39.3024 32.4075 39.3024 36.976V47.8263H35.0127V38.0111C35.0127 35.0487 33.571 33.621 31.391 33.621C28.6835 33.621 27.1013 35.5484 27.1013 38.1896V47.8263Z" fill="white"/>
<path d="M0.45611 29.0168C0.45611 24.4482 4.18326 21.2717 9.59818 21.2717C14.8021 21.2717 18.1073 24.1984 18.248 28.9097H13.7473C13.6418 26.6611 12.0595 25.3405 9.52785 25.3405C6.75007 25.3405 4.95682 26.6968 4.95682 28.874C4.95682 30.73 5.94135 31.765 8.08622 32.2647L12.1298 33.157C16.525 34.1207 18.6699 36.405 18.6699 40.2954C18.6699 45.1495 14.9428 48.2903 9.28172 48.2903C3.79648 48.2903 0.209978 45.3279 0.104492 40.6523H4.6052C4.64036 42.8652 6.39845 44.1858 9.28172 44.1858C12.2705 44.1858 14.1692 42.8652 14.1692 40.688C14.1692 38.9391 13.2902 37.904 11.1805 37.44L7.10169 36.5121C2.74163 35.5484 0.45611 33.0143 0.45611 29.0168Z" fill="white"/>
</svg>

