<svg width="16" height="16" viewBox="0 0 16 16" fill="none" xmlns="http://www.w3.org/2000/svg">
<path d="M2.80241 12H10.1357C10.5024 12 10.8024 11.7 10.8024 11.3333C10.8024 10.9667 10.5024 10.6667 10.1357 10.6667H2.80241C2.43574 10.6667 2.13574 10.9667 2.13574 11.3333C2.13574 11.7 2.43574 12 2.80241 12ZM2.80241 8.66667H8.13574C8.50241 8.66667 8.80241 8.36667 8.80241 8C8.80241 7.63333 8.50241 7.33333 8.13574 7.33333H2.80241C2.43574 7.33333 2.13574 7.63333 2.13574 8C2.13574 8.36667 2.43574 8.66667 2.80241 8.66667ZM2.13574 4.66667C2.13574 5.03333 2.43574 5.33333 2.80241 5.33333H10.1357C10.5024 5.33333 10.8024 5.03333 10.8024 4.66667C10.8024 4.3 10.5024 4 10.1357 4H2.80241C2.43574 4 2.13574 4.3 2.13574 4.66667ZM13.6691 9.92L11.7491 8L13.6691 6.08C13.9291 5.82 13.9291 5.4 13.6691 5.14C13.4091 4.88 12.9891 4.88 12.7291 5.14L10.3357 7.53333C10.0757 7.79333 10.0757 8.21333 10.3357 8.47333L12.7291 10.8667C12.9891 11.1267 13.4091 11.1267 13.6691 10.8667C13.9224 10.6067 13.9291 10.18 13.6691 9.92Z" fill="white"/>
</svg>
